<svg width="89" height="16" viewBox="0 0 89 16" fill="none" xmlns="http://www.w3.org/2000/svg">
<path d="M0.984 12C0.557333 12 0.344 11.7867 0.344 11.36V10.96C0.344 10.544 0.557333 10.336 0.984 10.336H1.368C1.77333 10.336 1.976 10.544 1.976 10.96V11.36C1.976 11.7867 1.77333 12 1.368 12H0.984ZM5.6485 12C5.2005 12 4.9765 11.776 4.9765 11.328V1.824C4.9765 1.376 5.2005 1.152 5.6485 1.152H9.5045C10.8965 1.152 11.9205 1.48267 12.5765 2.144C13.2378 2.8 13.5685 3.824 13.5685 5.216V7.936C13.5685 9.328 13.2405 10.3547 12.5845 11.016C11.9338 11.672 10.9072 12 9.5045 12H5.6485ZM6.3205 10.656H9.5045C10.1872 10.656 10.7258 10.5733 11.1205 10.408C11.5205 10.2373 11.8032 9.95467 11.9685 9.56C12.1392 9.16 12.2245 8.61867 12.2245 7.936V5.216C12.2245 4.53867 12.1392 4.00267 11.9685 3.608C11.8032 3.208 11.5205 2.92267 11.1205 2.752C10.7258 2.58133 10.1872 2.496 9.5045 2.496H6.3205V10.656ZM17.4678 8.496V8.88C17.4678 9.568 17.5931 10.0373 17.8438 10.288C18.0944 10.5333 18.5664 10.656 19.2598 10.656H20.5718C21.1158 10.656 21.5184 10.6053 21.7798 10.504C22.0411 10.4027 22.2144 10.224 22.2998 9.968C22.3584 9.76533 22.4384 9.61067 22.5398 9.504C22.6464 9.39733 22.8064 9.344 23.0198 9.344C23.2438 9.344 23.4144 9.40267 23.5318 9.52C23.6491 9.63733 23.6864 9.808 23.6438 10.032C23.5264 10.6933 23.2118 11.1867 22.6998 11.512C22.1878 11.8373 21.4784 12 20.5718 12H19.2598C18.1984 12 17.4091 11.744 16.8918 11.232C16.3798 10.72 16.1238 9.936 16.1238 8.88V7.024C16.1238 5.94133 16.3798 5.14667 16.8918 4.64C17.4091 4.128 18.1984 3.87733 19.2598 3.888H20.5718C21.6384 3.888 22.4278 4.144 22.9398 4.656C23.4518 5.16267 23.7078 5.952 23.7078 7.024V7.824C23.7078 8.272 23.4838 8.496 23.0358 8.496H17.4678ZM19.2598 5.232C18.5664 5.22133 18.0944 5.34133 17.8438 5.592C17.5931 5.84267 17.4678 6.32 17.4678 7.024V7.152H22.3638V7.024C22.3638 6.32533 22.2384 5.85333 21.9878 5.608C21.7424 5.35733 21.2704 5.232 20.5718 5.232H19.2598ZM29.5039 11.504C29.4345 11.6693 29.3359 11.7947 29.2079 11.88C29.0852 11.96 28.9279 12 28.7359 12C28.3999 12 28.1599 11.824 28.0159 11.472L25.2959 4.848C25.1092 4.42133 25.2265 4.128 25.6479 3.968C26.0479 3.78133 26.3412 3.89867 26.5279 4.32L29.0719 10.528H28.4479L31.2319 4.288C31.3225 4.112 31.4452 3.992 31.5999 3.928C31.7599 3.864 31.9359 3.87733 32.1279 3.968C32.5225 4.15467 32.6292 4.45333 32.4479 4.864L29.5039 11.504ZM35.4298 12C34.9818 12 34.7578 11.776 34.7578 11.328V1.824C34.7578 1.376 34.9818 1.152 35.4298 1.152H39.2858C40.6778 1.152 41.7018 1.48267 42.3578 2.144C43.0191 2.8 43.3498 3.824 43.3498 5.216V7.936C43.3498 9.328 43.0218 10.3547 42.3658 11.016C41.7151 11.672 40.6884 12 39.2858 12H35.4298ZM36.1018 10.656H39.2858C39.9684 10.656 40.5071 10.5733 40.9018 10.408C41.3018 10.2373 41.5844 9.95467 41.7498 9.56C41.9204 9.16 42.0058 8.61867 42.0058 7.936V5.216C42.0058 4.53867 41.9204 4.00267 41.7498 3.608C41.5844 3.208 41.3018 2.92267 40.9018 2.752C40.5071 2.58133 39.9684 2.496 39.2858 2.496H36.1018V10.656ZM47.249 8.496V8.88C47.249 9.568 47.3743 10.0373 47.625 10.288C47.8757 10.5333 48.3477 10.656 49.041 10.656H50.353C50.897 10.656 51.2997 10.6053 51.561 10.504C51.8223 10.4027 51.9957 10.224 52.081 9.968C52.1397 9.76533 52.2197 9.61067 52.321 9.504C52.4277 9.39733 52.5877 9.344 52.801 9.344C53.025 9.344 53.1957 9.40267 53.313 9.52C53.4303 9.63733 53.4677 9.808 53.425 10.032C53.3077 10.6933 52.993 11.1867 52.481 11.512C51.969 11.8373 51.2597 12 50.353 12H49.041C47.9797 12 47.1903 11.744 46.673 11.232C46.161 10.72 45.905 9.936 45.905 8.88V7.024C45.905 5.94133 46.161 5.14667 46.673 4.64C47.1903 4.128 47.9797 3.87733 49.041 3.888H50.353C51.4197 3.888 52.209 4.144 52.721 4.656C53.233 5.16267 53.489 5.952 53.489 7.024V7.824C53.489 8.272 53.265 8.496 52.817 8.496H47.249ZM49.041 5.232C48.3477 5.22133 47.8757 5.34133 47.625 5.592C47.3743 5.84267 47.249 6.32 47.249 7.024V7.152H52.145V7.024C52.145 6.32533 52.0197 5.85333 51.769 5.608C51.5237 5.35733 51.0517 5.232 50.353 5.232H49.041ZM58.3336 12C57.6563 12 57.1203 11.8613 56.7256 11.584C56.331 11.3013 56.0776 10.88 55.9656 10.32C55.9283 10.096 55.971 9.92 56.0936 9.792C56.2216 9.664 56.3976 9.6 56.6216 9.6C56.8403 9.6 56.9976 9.656 57.0936 9.768C57.195 9.87467 57.2776 10.0373 57.3416 10.256C57.4056 10.416 57.5123 10.5227 57.6616 10.576C57.8163 10.6293 58.0403 10.656 58.3336 10.656H60.9576C61.3736 10.656 61.6536 10.5893 61.7976 10.456C61.9416 10.3173 62.0136 10.032 62.0136 9.6C62.0136 9.17333 61.9416 8.89067 61.7976 8.752C61.6536 8.61333 61.3736 8.544 60.9576 8.544H58.3816C57.6136 8.544 57.035 8.34933 56.6456 7.96C56.2563 7.57067 56.0616 6.992 56.0616 6.224C56.0616 5.44 56.251 4.856 56.6296 4.472C57.0136 4.08267 57.5976 3.888 58.3816 3.888H60.8776C62.131 3.888 62.8723 4.416 63.1016 5.472C63.1443 5.696 63.1016 5.86933 62.9736 5.992C62.8456 6.11467 62.6696 6.176 62.4456 6.176C62.2376 6.176 62.083 6.12267 61.9816 6.016C61.8803 5.904 61.8003 5.74933 61.7416 5.552C61.6776 5.424 61.579 5.33867 61.4456 5.296C61.3176 5.25333 61.1283 5.232 60.8776 5.232H58.3816C57.9763 5.232 57.7123 5.29333 57.5896 5.416C57.467 5.53867 57.4056 5.808 57.4056 6.224C57.4056 6.608 57.4696 6.86667 57.5976 7C57.731 7.13333 57.9923 7.2 58.3816 7.2H60.9576C61.7576 7.2 62.3576 7.4 62.7576 7.8C63.1576 8.2 63.3576 8.8 63.3576 9.6C63.3576 10.4053 63.1576 11.008 62.7576 11.408C62.3576 11.8027 61.7576 12 60.9576 12H58.3336ZM66.6589 2.576C66.1522 2.576 65.8989 2.32 65.8989 1.808V1.336C65.8989 0.834666 66.1522 0.584 66.6589 0.584H67.1229C67.6082 0.584 67.8509 0.834666 67.8509 1.336V1.808C67.8509 2.32 67.6082 2.576 67.1229 2.576H66.6589ZM66.8829 12C66.4349 12 66.2109 11.776 66.2109 11.328V4.56C66.2109 4.112 66.4349 3.888 66.8829 3.888C67.3309 3.888 67.5549 4.112 67.5549 4.56V11.328C67.5549 11.776 67.3309 12 66.8829 12ZM72.8028 15.2C72.1574 15.2 71.6481 15.0693 71.2747 14.808C70.9068 14.5467 70.6694 14.1493 70.5628 13.616C70.5254 13.392 70.5654 13.216 70.6828 13.088C70.8001 12.96 70.9788 12.896 71.2188 12.896C71.4214 12.896 71.5681 12.9493 71.6588 13.056C71.7548 13.168 71.8374 13.3333 71.9068 13.552C71.9708 13.6693 72.0694 13.7493 72.2028 13.792C72.3414 13.8347 72.5414 13.856 72.8028 13.856H75.7788C76.1788 13.856 76.4374 13.792 76.5548 13.664C76.6774 13.5413 76.7388 13.2853 76.7388 12.896V11.032C76.4508 11.3467 76.0934 11.5867 75.6668 11.752C75.2454 11.9173 74.7708 12 74.2428 12H73.6348C72.5734 12 71.7841 11.744 71.2668 11.232C70.7548 10.72 70.4988 9.936 70.4988 8.88V7.024C70.4988 5.952 70.7521 5.16267 71.2588 4.656C71.7708 4.144 72.5628 3.888 73.6348 3.888H74.9468C75.3254 3.888 75.6641 3.944 75.9628 4.056C76.2668 4.168 76.5254 4.33867 76.7388 4.568V4.56C76.7388 4.112 76.9628 3.888 77.4108 3.888C77.8588 3.888 78.0828 4.112 78.0828 4.56V12.896C78.0828 13.68 77.8934 14.2587 77.5148 14.632C77.1414 15.0107 76.5628 15.2 75.7788 15.2H72.8028ZM73.6348 10.656H74.2428C74.9468 10.656 75.5388 10.568 76.0188 10.392C76.4988 10.216 76.7388 9.936 76.7388 9.552V6.352C76.7388 5.92 76.5814 5.62667 76.2668 5.472C75.9574 5.312 75.5174 5.232 74.9468 5.232H73.6348C72.9468 5.232 72.4748 5.35467 72.2188 5.6C71.9681 5.84533 71.8428 6.32 71.8428 7.024V8.88C71.8428 9.55733 71.9681 10.024 72.2188 10.28C72.4694 10.5307 72.9414 10.656 73.6348 10.656ZM81.9298 12C81.4818 12 81.2578 11.776 81.2578 11.328V4.56C81.2578 4.112 81.4818 3.888 81.9298 3.888C82.3778 3.888 82.6018 4.112 82.6018 4.56V4.824C83.1671 4.2 83.9991 3.888 85.0978 3.888H85.5458C86.6124 3.888 87.4018 4.144 87.9138 4.656C88.4258 5.168 88.6818 5.95733 88.6818 7.024V11.328C88.6818 11.776 88.4578 12 88.0098 12C87.5618 12 87.3378 11.776 87.3378 11.328V7.024C87.3378 6.32533 87.2098 5.85333 86.9538 5.608C86.7031 5.35733 86.2338 5.232 85.5458 5.232H85.0978C84.4578 5.232 83.9004 5.30667 83.4258 5.456C82.9511 5.6 82.6764 5.82933 82.6018 6.144V11.328C82.6018 11.776 82.3778 12 81.9298 12Z" fill="white"/>
<path d="M-1 13H90.1858V13.4H-1V13Z" fill="white"/>
<a href="https://devdesign.site">
<rect fill="black" fill-opacity="0" y="0.0360003" width="91.1858" height="18.928"/>
</a>
</svg>
